# xmcd CD database file
#
# Track frame offsets:
#	150
#	33709
#	53408
#	68854
#	89507
#	105002
#	126652
#	153765
#	176246
#
# Disc length: 2670 seconds
#
# Revision: 2
# Processed by: cddbd v1.4PL0 Copyright (c) Steve Scherf et al.
# Submitted via: Feurio! 1.66 - http://www.feurio.com
#
DISCID=720a6c09
DTITLE=Champion Jack Dupree - Forever and Ever
DYEAR=1991
DGENRE=blues
TTITLE0=They gave me away
TTITLE1=Hometown new Orleans
TTITLE2=Skit Skat
TTITLE3=Poor Boy
TTITLE4=Forever and Ever
TTITLE5=Yella Pocahontas
TTITLE6=Third Degree
TTITLE7=Dupree Special
TTITLE8=Let's talk it over
EXTD=
EXTT0=
EXTT1=
EXTT2=
EXTT3=
EXTT4=
EXTT5=
EXTT6=
EXTT7=
EXTT8=
PLAYORDER=
